<svg width="1560" height="871" viewBox="0 0 1560 871" fill="none" xmlns="http://www.w3.org/2000/svg">
<g clip-path="url(#clip0_20_144)">
<rect width="1560" height="871" fill="#F4F1E8"/>
<path d="M1487 909L1487 122.329C1487 70.8862 1459.98 28.3599 1412.66 28.3599C1365.34 28.3599 1338.32 72.258 1338.32 122.329L1338.32 296.55C1338.32 342.506 1314.33 379.545 1272.66 379.545C1230.98 379.545 1207 341.82 1207 296.55L1207 -269" stroke="#2D71C0" stroke-width="50" stroke-linecap="round" stroke-linejoin="round"/>
<path d="M1383.25 368.588C1383.44 367.804 1384.56 367.804 1384.75 368.588L1386.7 376.907C1388.21 383.357 1392.31 388.906 1398.05 392.259L1401.62 394.344C1402.13 394.638 1402.13 395.362 1401.62 395.656L1398.05 397.741C1392.31 401.094 1388.21 406.643 1386.7 413.093L1384.75 421.412C1384.56 422.196 1383.44 422.196 1383.25 421.412L1381.3 413.093C1379.79 406.643 1375.69 401.094 1369.95 397.741L1366.38 395.656C1365.87 395.362 1365.87 394.638 1366.38 394.344L1369.95 392.259C1375.69 388.906 1379.79 383.357 1381.3 376.907L1383.25 368.588Z" fill="white"/>
<path d="M1401.5 417.403C1401.63 416.866 1402.37 416.866 1402.5 417.403L1403.8 423.103C1404.8 427.522 1407.54 431.325 1411.37 433.622L1413.75 435.05C1414.08 435.252 1414.08 435.748 1413.75 435.95L1411.37 437.378C1407.54 439.675 1404.8 443.478 1403.8 447.897L1402.5 453.597C1402.37 454.134 1401.63 454.134 1401.5 453.597L1400.2 447.897C1399.2 443.478 1396.46 439.675 1392.63 437.378L1390.25 435.95C1389.92 435.748 1389.92 435.252 1390.25 435.05L1392.63 433.622C1396.46 431.325 1399.2 427.522 1400.2 423.103L1401.5 417.403Z" fill="white"/>
<path d="M1529.5 34.3922C1529.63 33.8693 1530.37 33.8693 1530.5 34.3922L1531.8 39.9383C1532.8 44.2378 1535.54 47.9375 1539.37 50.1728L1541.75 51.5624C1542.08 51.7585 1542.08 52.2415 1541.75 52.4376L1539.37 53.8272C1535.54 56.0625 1532.8 59.7622 1531.8 64.0617L1530.5 69.6078C1530.37 70.1307 1529.63 70.1307 1529.5 69.6078L1528.2 64.0617C1527.2 59.7622 1524.46 56.0625 1520.63 53.8272L1518.25 52.4376C1517.92 52.2415 1517.92 51.7585 1518.25 51.5624L1520.63 50.1728C1524.46 47.9375 1527.2 44.2378 1528.2 39.9383L1529.5 34.3922Z" fill="white"/>
<ellipse cx="1380" cy="441.5" rx="2" ry="2.5" fill="white"/>
<circle cx="1522.5" cy="22.5" r="4.5" fill="white"/>
<circle cx="1385.5" cy="456.5" r="3.5" fill="white"/>
<circle cx="1249.57" cy="305.44" r="2.24982" transform="rotate(-74.6307 1249.57 305.44)" fill="white"/>
<circle cx="1424" cy="491" r="3" fill="white"/>
<ellipse cx="1479" cy="97.5" rx="3" ry="2.5" fill="white"/>
<ellipse cx="1368.5" cy="359" rx="2.5" ry="3" fill="white"/>
<ellipse cx="1507" cy="36.5" rx="3" ry="2.5" fill="white"/>
<circle cx="1260.25" cy="292.043" r="4.49964" transform="rotate(-74.6307 1260.25 292.043)" fill="white"/>
<circle cx="1388.5" cy="344.5" r="4.5" fill="white"/>
<g style="mix-blend-mode:multiply">
<path fill-rule="evenodd" clip-rule="evenodd" d="M1506.5 444C1564.21 444 1611 397.214 1611 339.5C1611 281.786 1564.21 235 1506.5 235C1448.79 235 1402 281.786 1402 339.5C1402 397.214 1448.79 444 1506.5 444ZM1506.5 389C1533.84 389 1556 366.838 1556 339.5C1556 312.162 1533.84 290 1506.5 290C1479.16 290 1457 312.162 1457 339.5C1457 366.838 1479.16 389 1506.5 389Z" fill="#E9A79F"/>
</g>
<path d="M84.6753 72.0459C85.0022 70.6514 86.9978 70.6514 87.3247 72.0459L90.7917 86.8355C93.4795 98.3008 100.779 108.167 110.984 114.127L117.328 117.833C118.224 118.356 118.224 119.644 117.328 120.167L110.984 123.873C100.779 129.833 93.4795 139.699 90.7917 151.164L87.3247 165.954C86.9978 167.349 85.0022 167.349 84.6753 165.954L81.2083 151.164C78.5205 139.699 71.2211 129.833 61.0157 123.873L54.6715 120.167C53.7762 119.644 53.7762 118.356 54.6715 117.833L61.0157 114.127C71.2211 108.167 78.5205 98.3008 81.2083 86.8355L84.6753 72.0459Z" fill="white"/>
<path d="M124.213 159.621C124.408 158.793 125.592 158.793 125.787 159.621L127.845 168.402C129.441 175.21 133.775 181.068 139.834 184.607L143.601 186.807C144.133 187.118 144.133 187.882 143.601 188.193L139.834 190.393C133.775 193.932 129.441 199.79 127.845 206.598L125.787 215.379C125.592 216.207 124.408 216.207 124.213 215.379L122.155 206.598C120.559 199.79 116.225 193.932 110.166 190.393L106.399 188.193C105.867 187.882 105.867 187.118 106.399 186.807L110.166 184.607C116.225 181.068 120.559 175.21 122.155 168.402L124.213 159.621Z" fill="white"/>
<circle cx="95" cy="339" r="4" fill="white"/>
<circle cx="160" cy="59" r="4" fill="white"/>
<circle cx="295" cy="282" r="4" fill="white"/>
<circle cx="133" cy="79" r="8" fill="white"/>
<circle cx="162" cy="113" r="6" fill="white"/>
<circle cx="103" cy="294" r="8" fill="white"/>
<g style="mix-blend-mode:multiply">
<path fill-rule="evenodd" clip-rule="evenodd" d="M173.5 763C256.619 763 324 695.619 324 612.5C324 529.381 256.619 462 173.5 462C90.3811 462 23 529.381 23 612.5C23 695.619 90.3811 763 173.5 763ZM173.5 705.024C224.599 705.024 266.024 663.599 266.024 612.5C266.024 561.401 224.599 519.976 173.5 519.976C122.401 519.976 80.9763 561.401 80.9763 612.5C80.9763 663.599 122.401 705.024 173.5 705.024Z" fill="#28211F"/>
</g>
<g style="mix-blend-mode:multiply">
<path fill-rule="evenodd" clip-rule="evenodd" d="M43.0827 598.986C77.7836 584.841 117.903 589.612 150.956 607.386C180.281 623.155 193.207 655.547 205.709 686.437C217.387 715.292 229.265 745.961 218.904 775.277C208.441 804.882 182.67 828.114 152.549 836.855C125.508 844.702 98.6161 830.409 73.5753 817.45C52.4459 806.515 38.3916 788.94 23.7238 770.185C1.43809 741.69 -36.356 718.011 -32.2933 682.083C-27.9192 643.401 7.09482 613.655 43.0827 598.986Z" fill="#E7AC47"/>
</g>
</g>
<defs>
<clipPath id="clip0_20_144">
<rect width="1560" height="871" fill="white"/>
</clipPath>
</defs>
</svg>
