<svg width="186" height="161" viewBox="0 0 186 161" fill="none" xmlns="http://www.w3.org/2000/svg">
<path d="M0 85.5C0 115.6 24.4005 140 54.5 140C84.5995 140 109 115.6 109 85.5C109 55.4005 84.5995 31 54.5 31C24.4005 31 0 55.4005 0 85.5Z" fill="#E25927"/>
<path d="M42.8197 101.984C41.5237 100.904 40.5157 99.104 40.5157 97.376V51.8H37.5637L25.6117 54.032V55.472L26.2597 56.048C27.6997 57.056 28.6357 58.928 28.6357 60.656V97.376C28.6357 99.104 27.6997 100.904 26.2597 101.984L25.6117 102.488V104H43.5397V102.488L42.8197 101.984ZM44.7451 81.464C44.7451 86.36 46.9771 90.536 50.7211 93.416C46.7611 97.088 48.0571 101.264 56.9131 103.352C62.8891 104.648 71.9611 105.08 71.9611 110.192C71.9611 113.504 68.2891 115.16 62.8891 115.16C58.4251 115.16 54.8251 114.008 52.4491 112.28C54.2491 111.416 55.4011 109.544 55.4011 107.456C55.4011 104.432 52.9531 102.056 50.0011 102.056C46.9771 102.056 44.5291 104.432 44.5291 107.456C44.5291 107.744 44.5291 107.96 44.6011 108.248C45.9691 116.6 56.9851 119.696 65.7691 119.696C76.8571 119.696 84.1291 114.8 84.1291 107.456C84.1291 96.8 69.2251 98.456 60.5851 97.808C55.1851 97.448 52.8091 96.224 53.0251 94.928C55.9771 96.44 59.5051 97.304 63.4651 97.304C74.6251 97.304 82.0411 90.536 82.0411 81.32C82.0411 74.408 77.7931 69.152 70.9531 66.992C71.6731 65.912 72.6811 64.832 74.1931 64.832C74.6251 64.832 75.0571 64.904 75.5611 65.048C76.0651 65.192 77.0011 65.48 78.0091 65.48C79.1611 65.48 80.4571 65.12 81.2491 63.896C82.7611 61.592 81.8251 56.768 76.4251 56.408C70.8811 55.976 66.9211 60.656 67.6411 66.272C66.4171 65.984 65.0491 65.912 63.6091 65.912C52.5931 65.912 44.7451 72.176 44.7451 81.464ZM56.6971 81.464C56.6971 74.912 59.5051 70.448 63.3931 70.448C67.2811 70.448 70.1611 74.984 70.1611 81.68C70.1611 88.16 67.4971 92.84 63.4651 92.84C59.5051 92.84 56.6971 88.016 56.6971 81.464Z" fill="#F4F1E8"/>
<path d="M68 115.5C68 140.629 88.371 161 113.5 161C138.629 161 159 140.629 159 115.5C159 90.371 138.629 70 113.5 70C88.371 70 68 90.371 68 115.5Z" fill="#E9A79F"/>
<mask id="mask0_7_3812" style="mask-type:alpha" maskUnits="userSpaceOnUse" x="0" y="31" width="109" height="109">
<path d="M0 85.5C0 115.6 24.4005 140 54.5 140C84.5995 140 109 115.6 109 85.5C109 55.4005 84.5995 31 54.5 31C24.4005 31 0 55.4005 0 85.5Z" fill="#E25927"/>
</mask>
<g mask="url(#mask0_7_3812)">
<mask id="path-5-outside-1_7_3812" maskUnits="userSpaceOnUse" x="67" y="69" width="93" height="93" fill="black">
<rect fill="white" x="67" y="69" width="93" height="93"/>
<path d="M68 115.5C68 140.629 88.371 161 113.5 161C138.629 161 159 140.629 159 115.5C159 90.371 138.629 70 113.5 70C88.371 70 68 90.371 68 115.5Z"/>
</mask>
<path d="M68 115.5C68 140.629 88.371 161 113.5 161C138.629 161 159 140.629 159 115.5C159 90.371 138.629 70 113.5 70C88.371 70 68 90.371 68 115.5Z" fill="#E9A79F"/>
<path d="M69 115.5C69 140.077 88.9233 160 113.5 160V162C87.8188 162 67 141.181 67 115.5H69ZM113.5 160C138.077 160 158 140.077 158 115.5H160C160 141.181 139.181 162 113.5 162V160ZM158 115.5C158 90.9233 138.077 71 113.5 71V69C139.181 69 160 89.8188 160 115.5H158ZM113.5 71C88.9233 71 69 90.9233 69 115.5H67C67 89.8188 87.8188 69 113.5 69V71Z" fill="#EDC7C4" mask="url(#path-5-outside-1_7_3812)"/>
</g>
<path d="M112.33 124.016V103.136H110.314L102.394 104.624V105.632L102.826 105.968C103.69 106.544 104.218 107.6 104.362 108.656V119.648C104.026 122.768 102.394 124.736 100.138 124.736C97.7376 124.736 96.3936 122.624 96.3936 119.072V103.136H94.4256L86.4576 104.624V105.632L86.8896 105.968C87.8496 106.64 88.4736 107.888 88.4736 109.04V119.6C88.4736 124.928 91.2576 128.48 96.3456 128.48C99.8496 128.48 102.73 126.848 104.41 124.16C104.746 127.088 106.618 128.48 109.45 128.48C113.05 128.48 114.826 126.224 114.826 125.024C114.394 125.696 113.674 125.696 113.674 125.696C112.714 125.696 112.33 125.216 112.33 124.016ZM140.01 126.416C139.002 125.84 137.898 124.88 137.322 123.824L131.274 113.552L136.506 107.12C137.274 106.208 138.474 105.248 139.482 104.768L140.922 104.144V103.136H132.762V104.144C133.53 105.008 133.578 106.208 132.81 107.12L129.738 110.912L127.578 107.312C127.002 106.256 127.146 105.056 128.01 104.288L128.202 104.144V103.136H114.474V104.144L115.626 104.72C116.682 105.248 117.738 106.256 118.314 107.312L124.362 117.536L119.082 124.016C118.41 124.928 117.21 125.84 116.106 126.32L114.666 126.992V128H122.826V126.992C122.106 126.128 122.106 124.928 122.778 124.016L125.898 120.176L128.058 123.824C128.634 124.88 128.442 126.08 127.626 126.8L127.386 126.992V128H141.162V126.992L140.01 126.416Z" fill="#F4F1E8"/>
<path d="M17.3839 15.7374L10.8935 2.48733L25.6136 1.48317L25.6136 1.48319L25.6177 1.48287C34.6987 0.788884 43.2746 5.74015 47.214 13.9515L47.2158 13.9552L53.7063 27.2053L38.9861 28.2095L38.9861 28.2094L38.9821 28.2097C29.9011 28.9037 21.3252 23.9525 17.3857 15.7411L17.3857 15.7411L17.3839 15.7374Z" fill="#558337" stroke="#48732C"/>
<path d="M171.117 59.3189L184.371 63.5289L176.005 73.9879L176.003 73.9913C170.895 80.4905 162.155 83.032 153.982 80.3643L153.978 80.3631L140.724 76.1531L149.09 65.6941L149.09 65.6941L149.092 65.6907C154.201 59.1915 162.94 56.6501 171.113 59.3177L171.117 59.3189Z" fill="#48732C" stroke="#558337"/>
<path d="M139.327 74.2102L139.634 63.7616H139.634L139.634 63.7573C139.77 57.2592 144.058 51.5267 150.459 49.3356L150.459 49.3356L150.463 49.3343L160.709 45.7361L160.402 56.1847L160.402 56.1847L160.402 56.189C160.267 62.6871 155.979 68.4196 149.577 70.6107L149.577 70.6107L149.574 70.612L139.327 74.2102Z" fill="#558337" stroke="#48732C"/>
</svg>
