<svg width="118" height="118" viewBox="0 0 118 118" fill="none" xmlns="http://www.w3.org/2000/svg">
<mask id="path-1-inside-1_6_3719" fill="white">
<path d="M118 72.5C118 97.629 97.629 118 72.5 118C47.371 118 27 97.629 27 72.5C27 47.371 47.371 27 72.5 27C97.629 27 118 47.371 118 72.5Z"/>
</mask>
<path d="M118 72.5C118 97.629 97.629 118 72.5 118C47.371 118 27 97.629 27 72.5C27 47.371 47.371 27 72.5 27C97.629 27 118 47.371 118 72.5Z" fill="#E9A79F"/>
<path d="M116 72.5C116 96.5244 96.5244 116 72.5 116V120C98.7335 120 120 98.7335 120 72.5H116ZM72.5 116C48.4756 116 29 96.5244 29 72.5H25C25 98.7335 46.2665 120 72.5 120V116ZM29 72.5C29 48.4756 48.4756 29 72.5 29V25C46.2665 25 25 46.2665 25 72.5H29ZM72.5 29C96.5244 29 116 48.4756 116 72.5H120C120 46.2665 98.7335 25 72.5 25V29Z" fill="#EDC7C4" mask="url(#path-1-inside-1_6_3719)"/>
<path d="M9.99449 30.9879L1.62896 20.5289L14.8831 16.319L14.8868 16.3177C23.0599 13.6501 31.7994 16.1915 36.9075 22.6908L36.9102 22.6941L45.2757 33.1531L32.0216 37.3631L32.0216 37.363L32.0178 37.3643C23.8447 40.032 15.1052 37.4905 9.99715 30.9913L9.99449 30.9879Z" fill="#48732C" stroke="#558337"/>
<path d="M25.5976 13.1847L25.2907 2.73608L35.5371 6.33433L35.5371 6.33434L35.5409 6.33563C41.9422 8.52668 46.2305 14.2592 46.3659 20.7573L46.3661 20.7616L46.673 31.2102L36.4266 27.612L36.4266 27.612L36.4228 27.6107C30.0215 25.4196 25.7332 19.6871 25.5978 13.189L25.5976 13.1847Z" fill="#558337" stroke="#48732C"/>
<path d="M62.0844 84C67.2517 84 71.0844 78.8554 71.0844 73C71.0844 67.1446 67.2517 62 62.0844 62C56.9172 62 53.0844 67.1446 53.0844 73C53.0844 78.8554 56.9172 84 62.0844 84Z" fill="#F4F1E8" stroke="#28211F" stroke-width="2"/>
<rect x="61.0844" y="56" width="2" height="7" rx="1" fill="#28211F"/>
<rect width="2" height="7.00396" rx="1" transform="matrix(0.934963 0.354745 0.354745 -0.934963 55.6141 89.2397)" fill="#28211F"/>
<rect x="51.0844" y="60.4142" width="2" height="7" rx="1" transform="rotate(-45 51.0844 60.4142)" fill="#28211F"/>
<rect width="2" height="5.99606" rx="1" transform="matrix(0.410277 0.911961 0.911961 -0.410277 50 82.46)" fill="#28211F"/>
<rect x="71.0342" y="59" width="2" height="7" rx="1" transform="rotate(45 71.0342 59)" fill="#28211F"/>
<rect width="2" height="6.0035" rx="1" transform="matrix(0.911961 -0.410277 -0.410277 -0.911961 64.3616 89.4274)" fill="#28211F"/>
<mask id="mask0_6_3719" style="mask-type:alpha" maskUnits="userSpaceOnUse" x="54" y="63" width="17" height="20">
<ellipse cx="62.0844" cy="73" rx="8" ry="10" fill="#F4F1E8"/>
</mask>
<g mask="url(#mask0_6_3719)">
<ellipse cx="68.0844" cy="75" rx="8" ry="12" fill="#28211F"/>
</g>
<path d="M67.967 73.1617L58.8669 73.8239L61.6758 66.5534L67.967 73.1617Z" fill="#F4F1E8"/>
<path d="M91.364 84C86.1967 84 82.364 78.8554 82.364 73C82.364 67.1446 86.1967 62 91.364 62C96.5312 62 100.364 67.1446 100.364 73C100.364 78.8554 96.5312 84 91.364 84Z" fill="#F4F1E8" stroke="#28211F" stroke-width="2"/>
<rect width="2" height="7" rx="1" transform="matrix(-1 0 0 1 92.364 56)" fill="#28211F"/>
<rect x="97.8342" y="89.2397" width="2" height="7.00396" rx="1" transform="rotate(159.222 97.8342 89.2397)" fill="#28211F"/>
<rect width="2" height="7" rx="1" transform="matrix(-0.707107 -0.707107 -0.707107 0.707107 102.364 60.4142)" fill="#28211F"/>
<rect x="103.448" y="82.46" width="2" height="5.99606" rx="1" transform="rotate(114.222 103.448 82.46)" fill="#28211F"/>
<rect width="2" height="7" rx="1" transform="matrix(-0.707107 0.707107 0.707107 0.707107 82.4142 59)" fill="#28211F"/>
<rect x="89.0868" y="89.4274" width="2" height="6.0035" rx="1" transform="rotate(-155.778 89.0868 89.4274)" fill="#28211F"/>
<mask id="mask1_6_3719" style="mask-type:alpha" maskUnits="userSpaceOnUse" x="84" y="63" width="16" height="20">
<ellipse cx="92" cy="73" rx="8" ry="10" fill="#F4F1E8"/>
</mask>
<g mask="url(#mask1_6_3719)">
<ellipse cx="98" cy="75" rx="8" ry="12" fill="#28211F"/>
</g>
<path d="M97.8826 73.1617L88.7825 73.8239L91.5913 66.5534L97.8826 73.1617Z" fill="#F4F1E8"/>
<path d="M53 51.5C53 51.5 55 47 60 47C65 47 67.5 51.5 67.5 51.5" stroke="#28211F" stroke-width="2" stroke-linecap="round"/>
<path d="M100.416 52.5C100.416 52.5 98.4156 48 93.4156 48C88.4156 48 85.9156 52.5 85.9156 52.5" stroke="#28211F" stroke-width="2" stroke-linecap="round"/>
<path d="M71.6778 86.0006C71.6778 86.0006 70.5814 96.2286 75.7093 96.5632C80.8373 96.8977 82.7884 86.7254 82.7884 86.7254" stroke="#28211F" stroke-width="2" stroke-linecap="round"/>
</svg>
