<svg width="80" height="80" viewBox="0 0 80 80" fill="none" xmlns="http://www.w3.org/2000/svg">
<path d="M36.3086 3.15809C36.9683 -1.0527 43.0317 -1.0527 43.6913 3.15809L44.6669 9.38501C45.1685 12.5872 49.2304 13.6755 51.2659 11.1532L55.2241 6.2483C57.9008 2.93148 63.1519 5.96318 61.6178 9.93966L59.3491 15.8201C58.1825 18.844 61.156 21.8175 64.1799 20.6509L70.0603 18.3822C74.0368 16.8481 77.0685 22.0992 73.7517 24.7759L68.8468 28.7341C66.3245 30.7696 67.4128 34.8315 70.615 35.3331L76.8419 36.3086C81.0527 36.9683 81.0527 43.0317 76.8419 43.6913L70.615 44.6669C67.4128 45.1685 66.3245 49.2304 68.8468 51.2659L73.7517 55.2241C77.0685 57.9008 74.0368 63.1519 70.0603 61.6178L64.1799 59.3491C61.156 58.1825 58.1825 61.156 59.3491 64.1799L61.6178 70.0603C63.1519 74.0368 57.9008 77.0685 55.2241 73.7517L51.2659 68.8468C49.2304 66.3245 45.1685 67.4128 44.6669 70.615L43.6913 76.8419C43.0317 81.0527 36.9683 81.0527 36.3086 76.8419L35.3331 70.615C34.8315 67.4128 30.7696 66.3245 28.7341 68.8468L24.7758 73.7517C22.0992 77.0685 16.8481 74.0368 18.3822 70.0603L20.6509 64.1799C21.8175 61.156 18.844 58.1825 15.8201 59.3491L9.93965 61.6178C5.96317 63.1519 2.93149 57.9008 6.24831 55.2241L11.1532 51.2659C13.6755 49.2304 12.5872 45.1685 9.38501 44.6669L3.15809 43.6913C-1.0527 43.0317 -1.0527 36.9683 3.15809 36.3086L9.38501 35.3331C12.5872 34.8315 13.6755 30.7696 11.1532 28.7341L6.2483 24.7759C2.93148 22.0992 5.96318 16.8481 9.93966 18.3822L15.8201 20.6509C18.844 21.8175 21.8175 18.844 20.6509 15.8201L18.3822 9.93965C16.8481 5.96317 22.0992 2.93149 24.7759 6.24831L28.7341 11.1532C30.7696 13.6755 34.8315 12.5872 35.3331 9.38501L36.3086 3.15809Z" fill="#EDC7C4"/>
</svg>
