<svg width="643" height="609" viewBox="0 0 643 609" fill="none" xmlns="http://www.w3.org/2000/svg">
<path fill-rule="evenodd" clip-rule="evenodd" d="M321.5 177.951C144.927 177.951 1.60026 320.297 0.0132221 496.495C0.0131894 496.499 0.0102365 496.502 0.00661098 496.502V496.502C0.00296232 496.502 0 496.505 0 496.508V606.584C0 607.689 0.895423 608.584 1.99999 608.584H641C642.105 608.584 643 607.689 643 606.584V496.509C643 496.505 642.997 496.502 642.993 496.502V496.502C642.99 496.502 642.987 496.499 642.987 496.495C641.4 320.297 498.073 177.951 321.5 177.951Z" fill="#E25927"/>
<path d="M219.549 509.8C216.849 507.55 214.749 503.8 214.749 500.2V405.25H208.599L183.699 409.9V412.9L185.049 414.1C188.049 416.2 189.999 420.1 189.999 423.7V500.2C189.999 503.8 188.049 507.55 185.049 509.8L183.699 510.85V514H221.049V510.85L219.549 509.8ZM242.76 418C242.76 425.8 249.21 432.25 257.01 432.25C264.96 432.25 271.41 425.8 271.41 418C271.41 410.2 264.96 403.6 257.01 403.6C249.21 403.6 242.76 410.2 242.76 418ZM274.26 509.8C271.56 507.55 269.46 503.8 269.46 500.2V436.3H263.31L238.41 440.95V444.1L239.76 445.15C242.76 447.25 244.71 451.15 244.71 454.75V500.2C244.71 503.8 242.76 507.55 239.76 509.8L238.41 510.85V514H275.76V510.85L274.26 509.8ZM334.657 515.5C363.157 515.5 377.557 499.45 377.557 475.45C377.557 451 362.707 434.65 340.807 434.65C332.107 434.65 325.957 437.35 321.607 441.7V405.25H315.457L290.557 409.9V412.9L291.907 414.1C294.907 416.2 296.857 420.1 296.857 423.7V514H303.007L307.057 512.35C308.407 511.75 310.057 511.45 311.707 511.45C313.807 511.45 315.907 511.9 318.007 512.8C323.407 514.9 329.257 515.5 334.657 515.5ZM321.607 488.65V471.85C322.357 454.9 328.657 444.1 337.657 444.1C347.257 444.1 352.807 456.55 352.807 474.7C352.807 494.05 346.507 506.2 336.607 506.2C327.307 506.2 322.057 495.25 321.607 488.65ZM437.548 515.5C466.048 515.5 480.448 499.45 480.448 475.45C480.448 451 465.598 434.65 443.698 434.65C434.998 434.65 428.848 437.35 424.498 441.7V405.25H418.348L393.448 409.9V412.9L394.798 414.1C397.798 416.2 399.748 420.1 399.748 423.7V514H405.898L409.948 512.35C411.298 511.75 412.948 511.45 414.598 511.45C416.698 511.45 418.798 511.9 420.898 512.8C426.298 514.9 432.148 515.5 437.548 515.5ZM424.498 488.65V471.85C425.248 454.9 431.548 444.1 440.548 444.1C450.148 444.1 455.698 456.55 455.698 474.7C455.698 494.05 449.398 506.2 439.498 506.2C430.198 506.2 424.948 495.25 424.498 488.65ZM499.189 440.5C502.189 442.6 503.989 446.5 503.989 450.1V484.6C503.989 503.8 514.039 515.5 529.789 515.5C537.289 515.5 544.339 512.8 550.189 508C541.189 524.35 528.739 539.8 518.389 539.8C516.739 539.8 515.689 539.5 515.089 538.9C517.639 536.65 519.589 533.35 519.589 529.45C519.589 522.7 514.039 517.3 507.289 517.3C500.539 517.3 495.139 522.7 495.139 530.95C495.139 540.85 503.239 548.2 516.139 548.2C544.489 548.2 569.089 502.9 571.489 460.3C572.689 435.25 565.039 431.5 559.189 431.5C552.289 431.5 547.339 436.3 547.339 442.15C547.339 448.9 553.939 454.3 562.489 453.25C562.939 483.7 553.339 503.8 538.789 503.8C530.839 503.8 528.889 497.5 528.889 483.1V436.3H497.839V439.45L499.189 440.5Z" fill="#F4F1E8"/>
<path d="M82.5435 493.884C83.2872 493.865 83.9602 493.895 84.5625 493.976L84.9528 509.127C86.5332 508.966 87.7896 508.345 88.7221 507.265C89.6546 506.185 90.1011 504.877 90.0615 503.341C90.0047 501.134 89.0408 499.598 87.1699 498.734L87.0559 494.308C88.8947 494.861 90.4224 495.914 91.6388 497.467C92.8305 498.997 93.4564 500.925 93.5164 503.252C93.5652 505.148 93.1892 506.862 92.3884 508.395C91.563 509.905 90.3937 511.111 88.8805 512.015C87.3426 512.895 85.554 513.361 83.5147 513.413C81.4754 513.466 79.6775 513.104 78.121 512.328C76.5399 511.528 75.3103 510.396 74.4322 508.93C73.5536 507.44 73.0892 505.723 73.0392 503.78C72.991 501.908 73.3559 500.231 74.1339 498.746C74.9119 497.261 76.0342 496.092 77.5007 495.238C78.9432 494.385 80.6241 493.933 82.5435 493.884ZM81.3582 498.2C79.8473 498.263 78.6496 498.834 77.7651 499.913C76.8806 500.992 76.4585 502.311 76.4987 503.871C76.5351 505.286 77.0222 506.486 77.9598 507.47C78.8735 508.455 80.1005 509.024 81.641 509.176L81.3582 498.2Z" fill="#F4F1E8"/>
<path d="M85.1929 469.141L95.8794 463.874L95.3698 468.49L88.2083 472.009L94.4573 476.756L93.9872 481.014L84.9932 473.574L74.271 478.837L74.7805 474.221L81.942 470.702L75.6931 465.955L76.1631 461.697L85.1929 469.141Z" fill="#F4F1E8"/>
<path d="M83.4285 441.734C82.7204 440.831 82.2148 439.721 81.9119 438.402C81.609 437.084 81.6472 435.693 82.0266 434.23C82.4602 432.557 83.2729 431.144 84.4645 429.99C85.639 428.807 87.072 428.013 88.7637 427.608C90.4553 427.204 92.2652 427.252 94.1935 427.751C96.1217 428.251 97.7502 429.095 99.0787 430.282C100.384 431.464 101.286 432.863 101.784 434.479C102.265 436.067 102.289 437.697 101.855 439.37C101.476 440.833 100.848 442.059 99.9723 443.047C99.0732 444.029 98.0888 444.765 97.0193 445.257L108.937 448.346L107.908 452.319L79.576 444.974L80.6058 441.002L83.4285 441.734ZM93.1456 431.794C91.8214 431.451 90.6107 431.434 89.5137 431.745C88.3994 432.026 87.4809 432.557 86.7582 433.336C86.0182 434.087 85.5157 434.973 85.2508 435.995C84.9918 436.994 85.0004 438.013 85.2767 439.051C85.5589 440.067 86.1157 440.98 86.9469 441.79C87.7841 442.577 88.8648 443.143 90.1891 443.486C91.5133 443.829 92.7442 443.863 93.8817 443.588C95.0019 443.283 95.9321 442.756 96.672 442.005C97.418 441.232 97.9205 440.346 98.1794 439.347C98.4444 438.324 98.4358 437.306 98.1535 436.29C97.854 435.246 97.2741 434.327 96.4136 433.534C95.5592 432.717 94.4698 432.137 93.1456 431.794Z" fill="#F4F1E8"/>
<path d="M107.405 394.056C108.089 394.349 108.688 394.658 109.201 394.983L103.225 408.911C104.728 409.426 106.129 409.387 107.428 408.795C108.726 408.203 109.678 407.201 110.284 405.79C111.155 403.761 110.921 401.963 109.582 400.396L111.328 396.327C112.768 397.597 113.715 399.192 114.172 401.111C114.615 402.999 114.378 405.013 113.46 407.152C112.712 408.895 111.655 410.295 110.286 411.353C108.906 412.38 107.339 412.988 105.587 413.176C103.822 413.333 102.002 413.009 100.128 412.205C98.2529 411.4 96.7707 410.32 95.6809 408.965C94.5785 407.578 93.9347 406.035 93.7495 404.336C93.5737 402.615 93.8691 400.862 94.6356 399.075C95.3738 397.355 96.4064 395.983 97.7336 394.959C99.0607 393.936 100.569 393.342 102.258 393.179C103.925 393.007 105.641 393.299 107.405 394.056ZM104.525 397.482C103.126 396.908 101.8 396.926 100.545 397.537C99.2906 398.148 98.3558 399.17 97.7407 400.603C97.1823 401.905 97.1235 403.198 97.5641 404.484C97.9827 405.761 98.8599 406.79 100.196 407.572L104.525 397.482Z" fill="#F4F1E8"/>
<path d="M111.964 372.888C111.409 371.855 111.148 370.774 111.181 369.647C111.207 368.486 111.572 367.319 112.276 366.147L115.918 368.334L115.38 369.229C114.552 370.608 114.271 371.867 114.538 373.007C114.817 374.127 115.821 375.206 117.549 376.244L126.498 381.621L124.384 385.139L107.381 374.923L109.495 371.405L111.964 372.888Z" fill="#F4F1E8"/>
<path d="M124.363 345.266C123.906 345.853 123.324 346.191 122.617 346.28C121.91 346.368 121.262 346.184 120.675 345.728C120.088 345.271 119.75 344.689 119.661 343.982C119.572 343.275 119.756 342.627 120.213 342.04C120.655 341.472 121.229 341.143 121.937 341.054C122.644 340.966 123.291 341.15 123.879 341.606C124.466 342.063 124.804 342.645 124.893 343.352C124.981 344.059 124.805 344.697 124.363 345.266ZM127.675 345.287L143.336 357.461L140.817 360.701L125.156 348.527L127.675 345.287Z" fill="#F4F1E8"/>
<path d="M162.925 321.204C163.449 321.732 163.889 322.243 164.244 322.736L153.494 333.42C154.696 334.459 156.009 334.946 157.435 334.883C158.861 334.819 160.118 334.246 161.208 333.163C162.774 331.607 163.229 329.852 162.573 327.898L165.714 324.777C166.574 326.494 166.857 328.327 166.563 330.278C166.268 332.195 165.295 333.974 163.644 335.615C162.299 336.951 160.795 337.855 159.13 338.325C157.466 338.761 155.786 338.739 154.09 338.258C152.394 337.744 150.828 336.763 149.39 335.316C147.952 333.869 146.981 332.313 146.477 330.649C145.973 328.95 145.952 327.278 146.416 325.634C146.896 323.972 147.826 322.456 149.205 321.086C150.532 319.766 152.003 318.88 153.617 318.426C155.23 317.973 156.851 317.987 158.479 318.467C160.089 318.93 161.571 319.843 162.925 321.204ZM158.973 323.305C157.89 322.25 156.653 321.771 155.261 321.868C153.869 321.966 152.62 322.564 151.513 323.664C150.509 324.662 149.97 325.84 149.898 327.197C149.809 328.538 150.238 329.82 151.185 331.045L158.973 323.305Z" fill="#F4F1E8"/>
<path d="M177.907 297.176C179.16 296.247 180.47 295.677 181.839 295.468C183.228 295.244 184.58 295.435 185.897 296.042C187.214 296.648 188.409 297.674 189.482 299.119L196.457 308.514L193.19 310.938L186.581 302.036C185.522 300.61 184.358 299.786 183.087 299.563C181.801 299.322 180.542 299.659 179.309 300.575C178.076 301.49 177.379 302.605 177.219 303.92C177.064 305.2 177.516 306.554 178.574 307.98L185.184 316.883L181.888 319.329L170.064 303.402L173.36 300.956L174.712 302.777C174.765 301.721 175.07 300.703 175.627 299.721C176.203 298.726 176.963 297.877 177.907 297.176Z" fill="#F4F1E8"/>
<path d="M203.398 292.904C202.429 291.109 201.939 289.342 201.927 287.602C201.925 285.831 202.369 284.227 203.259 282.793C204.148 281.358 205.427 280.191 207.095 279.29C209.207 278.15 211.223 277.717 213.143 277.989C215.073 278.23 216.782 279.148 218.271 280.744L214.375 282.848C213.59 282.153 212.719 281.75 211.76 281.641C210.8 281.531 209.793 281.761 208.737 282.331C207.258 283.129 206.361 284.296 206.044 285.831C205.736 287.333 206.09 289.024 207.104 290.903C208.119 292.783 209.344 294.017 210.78 294.606C212.237 295.183 213.705 295.073 215.183 294.275C217.274 293.146 218.162 291.481 217.846 289.279L221.742 287.176C222.193 289.223 222.006 291.151 221.182 292.96C220.347 294.747 218.894 296.199 216.825 297.316C215.156 298.217 213.478 298.645 211.791 298.601C210.092 298.536 208.509 298.027 207.04 297.075C205.581 296.089 204.367 294.699 203.398 292.904Z" fill="#F4F1E8"/>
<path d="M252.586 270.76C252.842 271.459 253.028 272.106 253.144 272.702L238.913 277.917C239.571 279.363 240.561 280.355 241.883 280.893C243.205 281.431 244.587 281.436 246.029 280.908C248.102 280.148 249.249 278.744 249.469 276.695L253.627 275.171C253.691 277.09 253.182 278.874 252.099 280.523C251.031 282.142 249.404 283.352 247.218 284.153C245.438 284.805 243.693 284.997 241.984 284.728C240.29 284.429 238.773 283.707 237.433 282.562C236.108 281.386 235.094 279.841 234.392 277.925C233.69 276.01 233.458 274.191 233.696 272.468C233.948 270.714 234.628 269.187 235.736 267.886C236.867 266.577 238.345 265.588 240.17 264.919C241.928 264.275 243.634 264.084 245.29 264.347C246.945 264.609 248.412 265.299 249.69 266.415C250.96 267.509 251.925 268.957 252.586 270.76ZM248.117 271.017C247.575 269.606 246.651 268.653 245.345 268.161C244.04 267.668 242.655 267.689 241.19 268.226C239.861 268.713 238.879 269.558 238.247 270.762C237.606 271.942 237.46 273.287 237.808 274.795L248.117 271.017Z" fill="#F4F1E8"/>
<path d="M293.515 262.65C293.34 260.666 293.592 258.873 294.27 257.271C294.972 255.667 295.991 254.385 297.328 253.424C298.687 252.437 300.239 251.867 301.984 251.713C303.275 251.599 304.568 251.775 305.861 252.239C307.177 252.677 308.246 253.33 309.069 254.197L308.23 244.658L312.354 244.295L314.69 270.832L310.566 271.195L310.304 268.219C309.719 269.234 308.856 270.105 307.715 270.832C306.598 271.557 305.275 271.986 303.745 272.121C302.023 272.273 300.408 271.981 298.897 271.247C297.409 270.487 296.178 269.366 295.204 267.886C294.253 266.379 293.689 264.634 293.515 262.65ZM309.694 261.298C309.575 259.935 309.183 258.777 308.521 257.823C307.883 256.867 307.086 256.167 306.132 255.721C305.177 255.275 304.173 255.098 303.122 255.191C302.07 255.283 301.113 255.632 300.25 256.238C299.386 256.82 298.711 257.639 298.226 258.693C297.762 259.722 297.591 260.918 297.71 262.28C297.83 263.643 298.211 264.814 298.851 265.794C299.515 266.771 300.326 267.495 301.283 267.965C302.261 268.409 303.265 268.586 304.293 268.495C305.345 268.403 306.302 268.053 307.164 267.447C308.026 266.841 308.688 266.012 309.15 264.96C309.633 263.881 309.814 262.66 309.694 261.298Z" fill="#F4F1E8"/>
<path d="M351.313 261.911C351.265 262.654 351.175 263.321 351.041 263.914L335.915 262.947C335.934 264.535 336.44 265.842 337.432 266.868C338.425 267.893 339.688 268.455 341.22 268.553C343.424 268.694 345.04 267.871 346.068 266.085L350.487 266.368C349.772 268.15 348.586 269.577 346.93 270.649C345.3 271.7 343.323 272.15 341 272.002C339.108 271.881 337.434 271.353 335.979 270.418C334.549 269.461 333.452 268.188 332.688 266.6C331.949 264.99 331.645 263.167 331.775 261.131C331.905 259.095 332.426 257.337 333.339 255.856C334.277 254.353 335.515 253.229 337.053 252.486C338.616 251.744 340.367 251.435 342.307 251.56C344.175 251.679 345.814 252.193 347.223 253.1C348.632 254.008 349.696 255.231 350.415 256.768C351.136 258.281 351.435 259.995 351.313 261.911ZM347.12 260.345C347.193 258.834 346.731 257.59 345.736 256.613C344.74 255.635 343.464 255.097 341.907 254.997C340.494 254.907 339.255 255.284 338.191 256.13C337.129 256.952 336.452 258.123 336.163 259.644L347.12 260.345Z" fill="#F4F1E8"/>
<path d="M372.266 276.668C370.739 276.346 369.422 275.787 368.315 274.99C367.236 274.174 366.443 273.222 365.936 272.134C365.434 271.023 365.284 269.875 365.484 268.691L369.641 269.567C369.538 270.403 369.78 271.178 370.366 271.89C370.98 272.583 371.827 273.044 372.907 273.271C374.035 273.509 374.948 273.48 375.648 273.186C376.376 272.873 376.812 272.377 376.955 271.696C377.108 270.967 376.87 270.353 376.239 269.853C375.633 269.357 374.622 268.739 373.208 268C371.836 267.294 370.732 266.657 369.895 266.088C369.058 265.52 368.381 264.776 367.863 263.858C367.369 262.944 367.255 261.853 367.522 260.585C367.74 259.552 368.243 258.677 369.031 257.96C369.825 257.22 370.837 256.722 372.068 256.466C373.323 256.215 374.69 256.245 376.17 256.557C378.377 257.022 380.032 257.959 381.133 259.368C382.263 260.759 382.672 262.427 382.36 264.372L378.344 263.526C378.457 262.643 378.25 261.876 377.725 261.225C377.2 260.575 376.397 260.136 375.317 259.909C374.26 259.686 373.408 259.715 372.76 259.996C372.112 260.276 371.719 260.746 371.581 261.403C371.472 261.92 371.568 262.394 371.87 262.825C372.171 263.257 372.57 263.635 373.066 263.96C373.566 264.262 374.313 264.676 375.305 265.204C376.635 265.877 377.704 266.507 378.513 267.094C379.35 267.662 380.018 268.392 380.517 269.282C381.016 270.172 381.147 271.241 380.908 272.491C380.675 273.595 380.162 274.517 379.369 275.257C378.575 275.998 377.563 276.496 376.332 276.752C375.124 277.012 373.769 276.984 372.266 276.668Z" fill="#F4F1E8"/>
<path d="M406.773 262.86C406.071 262.616 405.564 262.172 405.254 261.531C404.944 260.889 404.911 260.217 405.156 259.514C405.401 258.812 405.844 258.305 406.486 257.995C407.128 257.685 407.8 257.652 408.503 257.897C409.183 258.134 409.678 258.573 409.988 259.215C410.298 259.857 410.33 260.529 410.086 261.232C409.841 261.934 409.398 262.441 408.756 262.751C408.114 263.061 407.453 263.097 406.773 262.86ZM407.812 266.005L401.286 284.737L397.41 283.387L403.937 264.655L407.812 266.005Z" fill="#F4F1E8"/>
<path d="M437.171 278.455C438.54 279.152 439.607 280.046 440.371 281.135C441.169 282.214 441.66 283.313 441.845 284.43L443.151 281.864L446.841 283.743L437.693 301.708C436.865 303.333 435.788 304.602 434.461 305.516C433.123 306.451 431.617 306.949 429.942 307.012C428.289 307.086 426.564 306.665 424.767 305.751C422.372 304.531 420.671 302.951 419.666 301.012C418.649 299.094 418.524 297.118 419.291 295.084L422.916 296.93C422.726 297.991 422.938 299.029 423.553 300.042C424.179 301.088 425.122 301.932 426.384 302.575C427.86 303.326 429.276 303.481 430.631 303.04C432.008 302.611 433.132 301.54 434.004 299.829L435.506 296.878C434.462 297.396 433.257 297.672 431.894 297.705C430.563 297.727 429.224 297.395 427.876 296.709C426.336 295.925 425.121 294.821 424.23 293.398C423.371 291.964 422.921 290.361 422.88 288.59C422.872 286.808 423.32 285.03 424.224 283.255C425.128 281.48 426.292 280.093 427.716 279.094C429.161 278.107 430.705 277.56 432.348 277.454C434.024 277.337 435.631 277.671 437.171 278.455ZM438.659 290.686C439.28 289.467 439.562 288.278 439.506 287.118C439.472 285.969 439.168 284.953 438.595 284.069C438.022 283.184 437.265 282.502 436.324 282.023C435.383 281.544 434.386 281.333 433.334 281.39C432.292 281.425 431.286 281.761 430.316 282.398C429.377 283.024 428.598 283.947 427.977 285.166C427.356 286.385 427.058 287.58 427.081 288.75C427.126 289.931 427.43 290.974 427.992 291.88C428.587 292.775 429.344 293.457 430.263 293.925C431.204 294.404 432.201 294.616 433.253 294.559C434.306 294.502 435.306 294.15 436.256 293.502C437.237 292.844 438.038 291.905 438.659 290.686Z" fill="#F4F1E8"/>
<path d="M472.674 300.581C473.941 301.49 474.883 302.565 475.499 303.806C476.135 305.06 476.365 306.407 476.188 307.846C476.012 309.285 475.399 310.736 474.349 312.198L467.526 321.702L464.221 319.33L470.688 310.323C471.723 308.88 472.154 307.519 471.978 306.241C471.817 304.943 471.112 303.847 469.864 302.951C468.616 302.055 467.342 301.731 466.042 301.979C464.774 302.222 463.623 303.064 462.587 304.507L456.121 313.514L452.787 311.121L464.355 295.007L467.689 297.401L466.366 299.243C467.388 298.972 468.451 298.952 469.555 299.184C470.679 299.429 471.719 299.895 472.674 300.581Z" fill="#F4F1E8"/>
<path d="M512.123 342.454C513.307 342.386 514.51 342.627 515.734 343.177C516.992 343.73 518.091 344.584 519.032 345.736C520.14 347.093 520.817 348.586 521.061 350.214C521.306 351.842 521.083 353.465 520.39 355.084C519.717 356.688 518.608 358.119 517.065 359.379C515.522 360.639 513.879 361.454 512.136 361.823C510.412 362.178 508.75 362.078 507.152 361.525C505.587 360.974 504.258 360.03 503.165 358.691C502.194 357.501 501.561 356.252 501.267 354.943C500.988 353.653 500.991 352.442 501.275 351.311L499.045 353.132L496.449 349.953L517.084 333.105L519.68 336.284L512.123 342.454ZM514.424 356.144C515.484 355.279 516.213 354.312 516.61 353.244C517.042 352.179 517.157 351.124 516.956 350.081C516.788 349.04 516.37 348.111 515.702 347.293C515.049 346.494 514.223 345.898 513.222 345.507C512.236 345.135 511.17 345.044 510.025 345.236C508.895 345.445 507.801 345.983 506.741 346.848C505.681 347.713 504.926 348.686 504.476 349.766C504.06 350.85 503.935 351.912 504.103 352.952C504.286 354.011 504.704 354.941 505.357 355.74C506.024 356.558 506.851 357.153 507.837 357.526C508.857 357.902 509.941 357.977 511.089 357.752C512.253 357.545 513.364 357.01 514.424 356.144Z" fill="#F4F1E8"/>
<path d="M544.393 384.881L513.095 389.219L510.936 385.561L521.295 384.131L534.13 367.487L536.453 371.425L526.266 383.914L542.234 381.223L544.393 384.881Z" fill="#F4F1E8"/>
<path d="M583.318 7.10892L543.1 89.2138C519.334 138.75 467.599 168.619 412.817 164.433L321.603 158.21L361.821 76.1053C385.587 26.5692 437.322 -3.29998 492.104 0.886604L583.318 7.10892Z" fill="#558337"/>
</svg>
