<svg width="1560" height="637" viewBox="0 0 1560 637" fill="none" xmlns="http://www.w3.org/2000/svg">
<g id="1000" clip-path="url(#clip0_21_309)">
<rect width="1560" height="637" fill="#F4F1E8"/>
<path id="Vector 1" d="M1371.68 246.644C1321.82 246.644 1293.35 283.055 1293.35 324.587L1293.35 469.094C1293.35 507.212 1268.08 537.934 1224.18 537.934C1180.27 537.934 1155 506.643 1155 469.094L1155 -0.000690329" stroke="#2D71C0" stroke-width="50" stroke-linecap="round" stroke-linejoin="round"/>
<g id="Subtract" style="mix-blend-mode:multiply">
<path fill-rule="evenodd" clip-rule="evenodd" d="M1427.71 366.421C1476.7 366.421 1516.42 326.704 1516.42 277.711C1516.42 228.717 1476.7 189 1427.71 189C1378.72 189 1339 228.717 1339 277.711C1339 326.704 1378.72 366.421 1427.71 366.421ZM1427.71 319.731C1450.92 319.731 1469.73 300.918 1469.73 277.711C1469.73 254.503 1450.92 235.69 1427.71 235.69C1404.5 235.69 1385.69 254.503 1385.69 277.711C1385.69 300.918 1404.5 319.731 1427.71 319.731Z" fill="#E9A79F"/>
</g>
<path id="Star 4" d="M146.739 558.578C149.992 559.398 149.136 564.256 145.798 563.914L133.704 562.674C130.908 562.387 129.581 566.043 131.906 567.625L141.966 574.467C144.742 576.355 142.283 580.629 139.265 579.161L128.329 573.842C125.8 572.612 123.308 575.593 124.954 577.879L132.071 587.767C134.035 590.496 130.27 593.669 127.935 591.252L119.476 582.496C117.52 580.471 114.164 582.419 114.931 585.133L118.247 596.874C119.162 600.113 114.545 601.804 113.176 598.73L108.214 587.592C107.066 585.017 103.251 585.695 103.047 588.511L102.162 600.688C101.918 604.048 97.0061 604.052 96.767 600.692L95.9004 588.516C95.7 585.701 91.8861 585.028 90.7351 587.605L85.7562 598.751C84.3823 601.826 79.7677 600.143 80.6877 596.902L84.0213 585.156C84.792 582.44 81.4391 580.498 79.4804 582.526L71.0079 591.295C68.6699 593.715 64.9094 590.547 66.8774 587.816L74.0092 577.917C75.658 575.629 73.1705 572.651 70.6404 573.885L59.696 579.22C56.676 580.692 54.2231 576.423 57.0019 574.53L67.0717 567.673C69.3997 566.088 68.0777 562.434 65.2813 562.725L53.1852 563.983C49.8473 564.33 48.998 559.473 52.2523 558.648L64.0455 555.659C66.7719 554.968 66.7748 551.079 64.0494 550.392L52.2606 547.42C49.0075 546.6 49.864 541.743 53.2014 542.085L65.2956 543.324C68.0916 543.611 69.4191 539.955 67.0934 538.373L57.0338 531.531C54.2578 529.643 56.717 525.37 59.7349 526.838L70.6713 532.156C73.1996 533.386 75.6915 530.405 74.0462 528.119L66.929 518.231C64.965 515.503 68.7302 512.33 71.0646 514.746L79.5241 523.502C81.4798 525.527 84.8357 523.58 84.069 520.866L80.7527 509.125C79.8376 505.885 84.4547 504.195 85.824 507.268L90.7864 518.406C91.9336 520.981 95.7485 520.303 95.953 517.488L96.8377 505.31C97.0818 501.95 101.994 501.946 102.233 505.306L103.1 517.482C103.3 520.297 107.114 520.97 108.265 518.393L113.244 507.248C114.618 504.172 119.232 505.856 118.312 509.097L114.979 520.843C114.208 523.558 117.561 525.5 119.52 523.473L127.992 514.704C130.33 512.284 134.091 515.451 132.123 518.183L124.991 528.081C123.342 530.37 125.829 533.347 128.36 532.114L139.304 526.778C142.324 525.306 144.777 529.576 141.998 531.468L131.928 538.325C129.6 539.911 130.922 543.564 133.719 543.273L145.815 542.016C149.153 541.669 150.002 546.525 146.748 547.35L134.954 550.339C132.228 551.03 132.225 554.919 134.951 555.606L146.739 558.578Z" fill="#E7AC47"/>
</g>
<defs>
<clipPath id="clip0_21_309">
<rect width="1560" height="637" fill="white"/>
</clipPath>
</defs>
</svg>
