<svg width="1560" height="637" viewBox="0 0 1560 637" fill="none" xmlns="http://www.w3.org/2000/svg">
<g id="1300" clip-path="url(#clip0_21_402)">
<rect width="1560" height="637" fill="#F4F1E8"/>
<path id="Vector 1" d="M1224.18 537.934C1180.27 537.934 1155 506.643 1155 469.094L1155 -0.000677434" stroke="#2D71C0" stroke-width="50" stroke-linecap="round" stroke-linejoin="round"/>
<path id="Star 4" d="M102.209 600.49C101.966 603.837 97.0336 603.837 96.791 600.49L95.9116 588.365C95.7084 585.561 91.8778 584.889 90.7238 587.454L85.7323 598.549C84.3549 601.611 79.7196 599.931 80.641 596.704L83.98 585.01C84.7519 582.307 81.3834 580.37 79.4179 582.387L70.9161 591.114C68.57 593.522 64.7913 590.365 66.7656 587.646L73.9202 577.794C75.5742 575.517 73.074 572.55 70.5341 573.776L59.5476 579.081C56.5158 580.545 54.0494 576.292 56.8385 574.409L66.9458 567.588C69.2824 566.011 67.9521 562.372 65.1441 562.66L52.9979 563.903C49.6462 564.246 48.7896 559.409 52.0571 558.59L63.8978 555.622C66.6352 554.936 66.6352 551.064 63.8978 550.378L52.057 547.41C48.7896 546.591 49.6461 541.754 52.9979 542.097L65.1441 543.34C67.952 543.628 69.2824 539.989 66.9458 538.412L56.8385 531.591C54.0495 529.708 56.5158 525.455 59.5476 526.919L70.5341 532.224C73.074 533.45 75.5742 530.483 73.9202 528.206L66.7656 518.354C64.7913 515.635 68.57 512.478 70.9161 514.886L79.4179 523.613C81.3833 525.63 84.7519 523.693 83.98 520.99L80.641 509.296C79.7196 506.069 84.3549 504.389 85.7323 507.451L90.7238 518.546C91.8778 521.111 95.7084 520.439 95.9116 517.635L96.791 505.51C97.0336 502.163 101.966 502.163 102.209 505.51L103.088 517.635C103.292 520.439 107.122 521.111 108.276 518.546L113.268 507.451C114.645 504.389 119.28 506.069 118.359 509.296L115.02 520.99C114.248 523.693 117.617 525.63 119.582 523.613L128.084 514.886C130.43 512.478 134.209 515.635 132.234 518.354L125.08 528.206C123.426 530.483 125.926 533.45 128.466 532.224L139.452 526.919C142.484 525.455 144.951 529.708 142.161 531.591L132.054 538.412C129.718 539.989 131.048 543.628 133.856 543.34L146.002 542.097C149.354 541.754 150.21 546.591 146.943 547.41L135.102 550.378C132.365 551.064 132.365 554.936 135.102 555.622L146.943 558.59C150.21 559.409 149.354 564.246 146.002 563.903L133.856 562.66C131.048 562.372 129.718 566.011 132.054 567.588L142.161 574.409C144.951 576.292 142.484 580.545 139.452 579.081L128.466 573.776C125.926 572.55 123.426 575.517 125.08 577.794L132.234 587.646C134.209 590.365 130.43 593.522 128.084 591.114L119.582 582.387C117.617 580.37 114.248 582.307 115.02 585.01L118.359 596.704C119.28 599.931 114.645 601.611 113.268 598.549L108.276 587.454C107.122 584.889 103.292 585.561 103.088 588.365L102.209 600.49Z" fill="#E7AC47"/>
</g>
<defs>
<clipPath id="clip0_21_402">
<rect width="1560" height="637" fill="white"/>
</clipPath>
</defs>
</svg>
