<svg width="1560" height="637" viewBox="0 0 1560 637" fill="none" xmlns="http://www.w3.org/2000/svg">
<g id="1400" clip-path="url(#clip0_21_433)">
<rect width="1560" height="637" fill="#F4F1E8"/>
<path id="Vector 1" d="M1155 469.094L1155 -0.000610352" stroke="#2D71C0" stroke-width="50" stroke-linecap="round" stroke-linejoin="round"/>
<path id="Star 4" d="M57.0176 531.602C54.2411 529.719 56.7075 525.447 59.7266 526.91L70.6674 532.211C73.1968 533.437 75.6944 530.455 74.0501 528.174L66.9373 518.303C64.9746 515.58 68.747 512.405 71.0809 514.817L79.5386 523.555C81.4938 525.575 84.8551 523.626 84.0907 520.916L80.7846 509.19C79.8723 505.954 84.4957 504.26 85.8629 507.329L90.8173 518.451C91.9627 521.022 95.7821 520.34 95.99 517.527L96.8893 505.36C97.1375 502.003 102.054 501.994 102.29 505.35L103.143 517.514C103.341 520.326 107.158 520.994 108.313 518.418L113.309 507.277C114.688 504.203 119.305 505.88 118.38 509.119L115.03 520.857C114.255 523.571 117.609 525.507 119.572 523.48L128.063 514.709C130.406 512.289 134.166 515.449 132.193 518.18L125.043 528.078C123.39 530.366 125.877 533.337 128.411 532.102L139.372 526.76C142.396 525.285 144.847 529.548 142.063 531.442L131.976 538.304C129.644 539.89 130.963 543.539 133.762 543.245L145.872 541.975C149.213 541.625 150.058 546.476 146.799 547.303L134.991 550.303C132.262 550.996 132.254 554.882 134.981 555.565L146.778 558.52C150.033 559.336 149.171 564.19 145.83 563.852L133.726 562.627C130.928 562.344 129.595 565.998 131.921 567.576L141.982 574.4C144.759 576.283 142.293 580.555 139.273 579.092L128.333 573.791C125.803 572.565 123.306 575.546 124.95 577.828L132.063 587.699C134.025 590.422 130.253 593.597 127.919 591.185L119.461 582.447C117.506 580.426 114.145 582.375 114.909 585.086L118.215 596.812C119.128 600.048 114.504 601.742 113.137 598.673L108.183 587.551C107.037 584.98 103.218 585.662 103.01 588.474L102.111 600.641C101.863 603.999 96.9458 604.008 96.7103 600.651L95.8567 588.488C95.6593 585.676 91.8425 585.008 90.6874 587.584L85.6912 598.724C84.3124 601.799 79.6954 600.122 80.6199 596.883L83.9701 585.145C84.7446 582.431 81.3907 580.494 79.4278 582.522L70.9372 591.293C68.5942 593.713 64.8337 590.553 66.8067 587.821L73.9566 577.924C75.6096 575.636 73.1231 572.664 70.5891 573.9L59.6283 579.242C56.6036 580.716 54.1533 576.454 56.9368 574.56L67.0241 567.698C69.3561 566.111 68.0369 562.463 65.2375 562.756L53.1285 564.027C49.787 564.377 48.9424 559.526 52.2007 558.698L64.0086 555.699C66.7384 555.005 66.7457 551.12 64.0185 550.437L52.2218 547.481C48.9665 546.666 49.8294 541.812 53.1696 542.15L65.274 543.374C68.0723 543.657 69.4051 540.004 67.0791 538.426L57.0176 531.602Z" fill="#E7AC47"/>
</g>
<defs>
<clipPath id="clip0_21_433">
<rect width="1560" height="637" fill="white"/>
</clipPath>
</defs>
</svg>
