<svg width="1560" height="637" viewBox="0 0 1560 637" fill="none" xmlns="http://www.w3.org/2000/svg">
<g id="200" clip-path="url(#clip0_21_681)">
<rect width="1560" height="637" fill="#F4F1E8"/>
<g id="Subtract" style="mix-blend-mode:multiply">
<path fill-rule="evenodd" clip-rule="evenodd" d="M1427.71 366.421C1476.7 366.421 1516.42 326.704 1516.42 277.711C1516.42 228.717 1476.7 189 1427.71 189C1378.72 189 1339 228.717 1339 277.711C1339 326.704 1378.72 366.421 1427.71 366.421ZM1427.71 319.731C1450.92 319.731 1469.73 300.918 1469.73 277.711C1469.73 254.503 1450.92 235.69 1427.71 235.69C1404.5 235.69 1385.69 254.503 1385.69 277.711C1385.69 300.918 1404.5 319.731 1427.71 319.731Z" fill="#E9A79F"/>
</g>
<path id="Star 4" d="M141.982 574.399C144.759 576.282 142.293 580.554 139.273 579.091L128.333 573.79C125.803 572.564 123.306 575.546 124.95 577.827L132.063 587.698C134.025 590.421 130.253 593.596 127.919 591.184L119.461 582.446C117.506 580.426 114.145 582.375 114.909 585.085L118.215 596.811C119.128 600.047 114.504 601.741 113.137 598.672L108.183 587.55C107.037 584.979 103.218 585.661 103.01 588.474L102.111 600.64C101.863 603.998 96.9458 604.007 96.7103 600.651L95.8567 588.487C95.6593 585.675 91.8425 585.007 90.6874 587.583L85.6912 598.724C84.3125 601.798 79.6954 600.121 80.6199 596.882L83.9701 585.144C84.7446 582.43 81.3907 580.494 79.4278 582.521L70.9372 591.292C68.5942 593.712 64.8337 590.552 66.8067 587.821L73.9566 577.923C75.6096 575.635 73.1231 572.664 70.5891 573.899L59.6283 579.241C56.6037 580.716 54.1533 576.453 56.9369 574.559L67.0241 567.697C69.3561 566.111 68.0369 562.462 65.2375 562.756L53.1285 564.026C49.787 564.376 48.9423 559.525 52.2007 558.698L64.0086 555.698C66.7384 555.004 66.7457 551.119 64.0185 550.436L52.2218 547.481C48.9665 546.665 49.8294 541.811 53.1696 542.149L65.2739 543.373C68.0723 543.657 69.4051 540.003 67.0791 538.425L57.0176 531.601C54.2411 529.718 56.7075 525.446 59.7266 526.909L70.6674 532.21C73.1968 533.436 75.6944 530.455 74.0501 528.173L66.9373 518.302C64.9746 515.579 68.747 512.404 71.0809 514.816L79.5386 523.554C81.4938 525.575 84.8551 523.626 84.0907 520.915L80.7846 509.189C79.8723 505.953 84.4957 504.259 85.8629 507.328L90.8173 518.45C91.9627 521.021 95.7821 520.339 95.99 517.527L96.8893 505.36C97.1375 502.002 102.054 501.993 102.29 505.35L103.143 517.513C103.341 520.325 107.158 520.993 108.313 518.417L113.309 507.277C114.688 504.202 119.305 505.879 118.38 509.118L115.03 520.856C114.255 523.57 117.609 525.507 119.572 523.479L128.063 514.708C130.406 512.288 134.166 515.448 132.193 518.18L125.043 528.077C123.39 530.365 125.877 533.337 128.411 532.101L139.372 526.759C142.396 525.285 144.847 529.547 142.063 531.441L131.976 538.303C129.644 539.89 130.963 543.538 133.762 543.245L145.871 541.974C149.213 541.624 150.058 546.475 146.799 547.302L134.991 550.302C132.262 550.996 132.254 554.881 134.981 555.564L146.778 558.52C150.033 559.335 149.171 564.189 145.83 563.851L133.726 562.627C130.928 562.344 129.595 565.997 131.921 567.575L141.982 574.399Z" fill="#E7AC47"/>
</g>
<defs>
<clipPath id="clip0_21_681">
<rect width="1560" height="637" fill="white"/>
</clipPath>
</defs>
</svg>
