<svg width="64" height="64" viewBox="0 0 64 64" fill="none" xmlns="http://www.w3.org/2000/svg">
<path d="M22.3125 0H41.6875C48.1125 0 51.325 0 54.7812 1.09375C58.5563 2.46875 61.5312 5.44375 62.9062 9.21875C64 12.675 64 15.8875 64 22.3125V41.6875C64 48.1125 64 51.325 62.9062 54.7812C61.5312 58.5563 58.5563 61.5312 54.7812 62.9062C51.325 64 48.1125 64 41.6875 64H22.3125C15.8875 64 12.675 64 9.21875 62.9062C5.44375 61.5312 2.46875 58.5563 1.09375 54.7812C0 51.325 0 48.1125 0 41.6875V22.3125C0 15.8875 0 12.675 1.09375 9.21875C2.46875 5.44375 5.44375 2.46875 9.21875 1.09375C12.675 0 15.8875 0 22.3125 0Z" fill="url(#paint0_linear_17114_21344)"/>
<path d="M12.4553 47.6438C15.2553 47.4813 20.1928 46.7876 25.3053 44.4938C33.3866 40.8688 37.5616 35.5813 37.6241 35.6313C37.8241 35.7876 34.9366 39.9376 29.5053 43.5938C25.6178 46.2063 22.3241 47.5626 18.9928 48.5626C16.8991 49.1876 20.1178 48.0688 23.1241 50.1813C25.1866 51.6313 25.2741 53.2063 25.3553 51.9188C25.3928 51.3251 25.3678 50.4751 25.3116 49.8376C27.2116 50.3751 29.9241 50.8751 33.3178 50.5001C37.0178 50.0876 40.4303 48.7126 43.4616 46.4376C44.5241 45.6376 43.5866 45.8751 43.0428 45.9813C41.7178 46.2376 39.2928 46.5001 36.5991 45.8563C38.4178 45.8563 50.1803 45.0063 53.7678 34.6813C57.5803 23.6876 52.3678 10.0376 39.5366 10.0376C26.6991 10.0376 24.9678 29.1063 25.1928 32.6376C24.5428 30.7313 24.2741 27.9251 24.7178 25.4938C24.8866 24.5751 25.1116 23.5251 23.9741 24.8751C21.7928 27.4688 18.9303 32.4751 19.7616 39.2063C18.7491 38.3688 17.8366 37.7876 16.9866 37.3501C16.0303 36.8563 15.6178 36.6626 16.6866 38.0001C17.5303 39.0563 18.5553 41.4688 17.2678 43.9813C16.2803 45.9063 14.5803 46.8563 12.7678 47.0563C11.9053 47.1313 11.8366 47.6813 12.4553 47.6438Z" fill="white"/>
<defs>
<linearGradient id="paint0_linear_17114_21344" x1="0" y1="64" x2="64" y2="7.62938e-06" gradientUnits="userSpaceOnUse">
<stop stop-color="#EB5E8F"/>
<stop offset="1" stop-color="#F0707D"/>
</linearGradient>
</defs>
</svg>
